HIERARCHY
ROOT Hips
{
	OFFSET 53.022499 -4.154834 84.312798
	CHANNELS 6 Xposition Yposition Zposition Xrotation Yrotation Zrotation
	JOINT spine
	{
		OFFSET 0.000000 -0.342408 5.954384
		CHANNELS 3 Xrotation Yrotation Zrotation
		JOINT spine1
		{
			OFFSET 0.000000 -0.000001 8.856018
			CHANNELS 3 Xrotation Yrotation Zrotation
			JOINT spine2
			{
				OFFSET 0.000000 -0.000001 8.485672
				CHANNELS 3 Xrotation Yrotation Zrotation
				JOINT Neck
				{
					OFFSET 0.000000 -1.038703 21.786301
					CHANNELS 3 Xrotation Yrotation Zrotation
					JOINT Head
					{
						OFFSET 0.000000 -0.000001 6.582199
						CHANNELS 3 Xrotation Yrotation Zrotation
						End Site
						{
							OFFSET 0.000000 5.254357 15.932602
						}
					}
				}
				JOINT RightShoulder
				{
					OFFSET -3.573071 0.497524 9.163864
					CHANNELS 3 Xrotation Yrotation Zrotation
					JOINT RightArm
					{
						OFFSET 0.000000 -0.000002 12.019196
						CHANNELS 3 Xrotation Yrotation Zrotation
						JOINT RightArmRoll
						{
							OFFSET 0.000000 -0.000001 6.067551
							CHANNELS 3 Xrotation Yrotation Zrotation
							JOINT RightForeArm
							{
								OFFSET 0.000000 -0.000003 17.672592
								CHANNELS 3 Xrotation Yrotation Zrotation
								JOINT RightForeArmRoll
								{
									OFFSET 0.000000 -0.000001 6.808716
									CHANNELS 3 Xrotation Yrotation Zrotation
									JOINT RightHand
									{
										OFFSET 0.000000 -0.000002 13.663605
										CHANNELS 3 Xrotation Yrotation Zrotation
										End Site
										{
											OFFSET 0.000000 0.000000 0.100006
										}
									}
								}
							}
						}
					}
				}
				JOINT LeftShoulder
				{
					OFFSET 3.573071 0.497524 9.163864
					CHANNELS 3 Xrotation Yrotation Zrotation
					JOINT LeftArm
					{
						OFFSET 0.000000 -0.000002 12.019196
						CHANNELS 3 Xrotation Yrotation Zrotation
						JOINT LeftArmRoll
						{
							OFFSET 0.000000 -0.000001 6.067551
							CHANNELS 3 Xrotation Yrotation Zrotation
							JOINT LeftForeArm
							{
								OFFSET 0.000000 -0.000003 17.672592
								CHANNELS 3 Xrotation Yrotation Zrotation
								JOINT LeftForeArmRoll
								{
									OFFSET 0.000000 -0.000001 6.808716
									CHANNELS 3 Xrotation Yrotation Zrotation
									JOINT LeftHand
									{
										OFFSET 0.000000 -0.000002 13.663605
										CHANNELS 3 Xrotation Yrotation Zrotation
										End Site
										{
											OFFSET 0.000000 0.000000 0.100006
										}
									}
								}
							}
						}
					}
				}
			}
		}
	}
	JOINT RightUpLeg
	{
		OFFSET -5.277740 0.811858 -0.967796
		CHANNELS 3 Xrotation Yrotation Zrotation
		JOINT RightUpLegRoll
		{
			OFFSET 0.000000 -0.000003 16.021400
			CHANNELS 3 Xrotation Yrotation Zrotation
			JOINT RightLeg
			{
				OFFSET 0.000000 0.000003 -19.840096
				CHANNELS 3 Xrotation Yrotation Zrotation
				JOINT RightLegRoll
				{
					OFFSET 0.000000 -0.000003 19.904999
					CHANNELS 3 Xrotation Yrotation Zrotation
					JOINT RightFoot
					{
						OFFSET 0.000000 -0.000003 16.567497
						CHANNELS 3 Xrotation Yrotation Zrotation
						JOINT RightToeBase
						{
							OFFSET 0.000000 -0.000002 13.849602
							CHANNELS 3 Xrotation Yrotation Zrotation
							End Site
							{
								OFFSET 0.005871 0.773115 6.707275
							}
						}
					}
				}
			}
		}
	}
	JOINT LeftUpLeg
	{
		OFFSET 5.277740 0.811858 -0.967796
		CHANNELS 3 Xrotation Yrotation Zrotation
		JOINT LeftUpLegRoll
		{
			OFFSET 0.000000 -0.000003 16.021500
			CHANNELS 3 Xrotation Yrotation Zrotation
			JOINT LeftLeg
			{
				OFFSET 0.000000 -0.000003 19.839996
				CHANNELS 3 Xrotation Yrotation Zrotation
				JOINT LeftLegRoll
				{
					OFFSET 0.000000 -0.000003 20.089005
					CHANNELS 3 Xrotation Yrotation Zrotation
					JOINT LeftFoot
					{
						OFFSET 0.000000 -0.000003 16.383499
						CHANNELS 3 Xrotation Yrotation Zrotation
						JOINT LeftToeBase
						{
							OFFSET 0.000000 -0.000002 13.849594
							CHANNELS 3 Xrotation Yrotation Zrotation
							End Site
							{
								OFFSET -0.026310 0.773116 6.707275
							}
						}
					}
				}
			}
		}
	}
}
MOTION
Frames: 4
Frame Time: 0.041667
53.362301 -3.294273 84.307999 -10.886933 -2.563785 -0.653526 -0.707633 0.313680 0.060425 2.587256 0.627098 0.124829 4.232365 0.628522 0.114706 14.198979 15.543424 -5.813495 1.128492 -16.281907 -6.015246 5.590712 -66.348061 5.478182 -56.086604 -138.767683 -92.157475 -0.000001 -0.000000 0.000003 84.613538 2.023399 -4.630009 0.000004 0.000000 -2.999993 -5.000168 -7.999920 0.000018 -18.055598 69.941369 21.351272 -57.238515 139.537964 90.696525 0.000001 -0.000000 -0.000000 84.598231 -2.020745 4.632967 -0.000005 0.000003 3.000000 -5.000187 7.999948 -0.000001 3.073996 -176.423144 5.496981 -179.999991 0.000005 -1.146005 167.076795 -3.015780 -0.746644 0.000003 -0.000004 0.213971 71.293125 6.825707 2.146888 25.456953 -7.355617 0.000001 5.693336 -177.147131 1.612499 -0.000005 -0.000004 -1.168760 -8.797214 2.231523 0.401006 0.000005 0.000002 -0.119541 69.855008 -6.833966 -2.205927 25.456948 7.355613 -0.000001 
53.363796 -3.295664 84.306099 -10.878873 -2.569413 -0.651396 -0.715840 0.316973 0.060362 2.570827 0.633680 0.124002 4.215937 0.635093 0.114811 14.365752 15.476118 -5.828946 0.948302 -16.251088 -6.029261 5.596483 -66.415783 5.474519 -56.044810 -138.682169 -92.078477 -0.000002 -0.000000 -0.000000 84.550372 2.025541 -4.629388 0.000003 0.000003 -2.999989 -5.000168 -7.999923 0.000016 -18.126685 69.947831 21.430632 -57.216413 139.576651 90.706258 0.000001 -0.000002 -0.000003 84.552128 -2.022480 4.632864 -0.000006 0.000001 3.000003 -5.000186 7.999954 -0.000002 3.059805 -176.417106 5.499565 -179.999991 0.000005 -1.146005 167.066045 -3.018567 -0.747878 0.000003 -0.000003 0.214158 71.297380 6.825378 2.146972 25.456952 -7.355615 0.000000 5.684204 -177.144098 1.613032 -0.000006 -0.000004 -1.168530 -8.799337 2.234871 0.401078 0.000005 0.000002 -0.119557 69.854899 -6.833963 -2.205934 25.456953 7.355613 -0.000001 
53.366898 -3.300830 84.306900 -10.872212 -2.574764 -0.649307 -0.723494 0.320095 0.060301 2.555521 0.639922 0.123234 4.200633 0.641325 0.114902 14.524628 15.410059 -5.842842 0.778541 -16.219882 -6.041624 5.595299 -66.477924 5.463866 -56.009061 -138.598841 -92.001132 0.000003 0.000002 -0.000001 84.482466 2.027894 -4.628777 0.000002 -0.000004 -2.999990 -5.000166 -7.999926 0.000015 -18.190080 69.951437 21.501393 -57.199737 139.611826 90.715274 0.000002 0.000001 -0.000001 84.509412 -2.024078 4.632834 -0.000005 -0.000001 2.999999 -5.000186 7.999944 0.000001 3.049760 -176.411082 5.502297 -179.999991 0.000005 -1.144995 167.059515 -3.020445 -0.748671 0.000003 -0.000004 0.214289 71.299020 6.825170 2.147037 25.456953 -7.355615 -0.000000 5.676796 -177.141052 1.612920 -0.000005 -0.000004 -1.168320 -8.801172 2.238614 0.401135 0.000005 0.000002 -0.119573 69.854592 -6.833988 -2.205955 25.456953 7.355613 -0.000001 
53.366104 -3.299205 84.308701 -10.867148 -2.579728 -0.647210 -0.730381 0.322973 0.060240 2.541752 0.645677 0.122546 4.186867 0.647070 0.114976 14.671330 15.346419 -5.854783 0.623494 -16.188790 -6.051936 5.584763 -66.532470 5.443827 -55.979827 -138.518081 -91.925235 -0.000001 -0.000001 -0.000003 84.412641 2.030336 -4.628015 0.000002 0.000002 -2.999991 -5.000167 -7.999924 0.000015 -18.245343 69.951294 21.563098 -57.189464 139.643163 90.725662 0.000001 0.000001 0.000001 84.470418 -2.025542 4.632772 -0.000006 -0.000001 2.999998 -5.000186 7.999955 0.000001 3.044525 -176.406055 5.505073 -179.999991 0.000005 -1.144994 167.057985 -3.022371 -0.748187 0.000003 -0.000004 0.214349 71.297695 6.825018 2.147093 25.456955 -7.355614 -0.000000 5.671299 -177.138060 1.612071 -0.000005 -0.000004 -1.168130 -8.802685 2.242795 0.401177 0.000005 0.000002 -0.119588 69.854284 -6.834009 -2.205880 25.456955 7.355613 -0.000000 
